<svg width="40" height="40" viewBox="0 0 40 40" fill="none" xmlns="http://www.w3.org/2000/svg">
<path d="M2.54017 10.0468C-1.00124 15.1366 -0.560368 21.7593 2.1449 27.1679C2.20912 27.2976 2.27655 27.4251 2.34302 27.5525L2.46953 27.7963L2.54852 27.9366L2.68948 28.189C2.77361 28.337 2.85967 28.4844 2.94765 28.6318L3.09503 28.8745C3.19265 29.0322 3.29251 29.1879 3.39462 29.3433L3.52242 29.5405C3.66338 29.7508 3.80755 29.9608 3.95654 30.1669L3.96907 30.183L4.04228 30.2819C4.17104 30.4595 4.30365 30.6348 4.43787 30.8082L4.58686 30.9976C4.70663 31.1482 4.82833 31.2979 4.95227 31.4468L5.09195 31.6138C5.25859 31.8105 5.42837 32.0044 5.60122 32.1956L5.61181 32.2062L5.6314 32.2281C5.80128 32.4124 5.97384 32.5943 6.14901 32.7736L6.31502 32.9409C6.45085 33.0777 6.58892 33.2122 6.72828 33.3461L6.8975 33.5067C7.08373 33.6823 7.2719 33.8545 7.46392 34.0227L7.47291 34.0298L7.57148 34.1139C7.7407 34.2603 7.91281 34.4058 8.08621 34.5483L8.29942 34.7182C8.44102 34.8319 8.58423 34.9436 8.72841 35.0534L8.95767 35.2278C9.11694 35.345 9.27717 35.4603 9.439 35.573L9.61432 35.6972L9.66249 35.7316C9.81597 35.8372 9.97299 35.939 10.13 36.0408L10.3323 36.1757C10.5731 36.3279 10.8172 36.4785 11.0641 36.6239L11.2664 36.7379C11.4478 36.8426 11.6305 36.9454 11.8155 37.0459C11.9156 37.0998 12.0184 37.1509 12.1192 37.2026C12.2499 37.271 12.3796 37.3403 12.5126 37.4068L12.6034 37.4508L12.7643 37.5285C12.9701 37.6267 13.1776 37.7234 13.3872 37.8165L13.5189 37.8756C13.7592 37.9807 14.0015 38.0815 14.2455 38.1777L14.4225 38.2474C14.6485 38.3344 14.8778 38.4205 15.108 38.5014L15.1941 38.5313C15.4468 38.6196 15.7017 38.7015 15.9586 38.7814L16.1432 38.8366C16.4046 38.9153 16.6631 39.0094 16.9325 39.0592C34.0597 42.1825 39.0348 28.7669 39.0348 28.7669C34.8563 34.2105 27.4395 35.6465 20.4123 34.0478C20.1461 33.9877 19.8879 33.9045 19.6281 33.8278L19.4326 33.7684C19.1795 33.6908 18.9277 33.6089 18.6774 33.5228L18.5736 33.4852C18.3504 33.4063 18.1284 33.324 17.9077 33.2383L17.7208 33.1647C17.4793 33.0694 17.2392 32.9698 17.0019 32.8658L16.8583 32.8022C16.6551 32.7104 16.4529 32.6163 16.2518 32.52L16.0765 32.4358C15.9188 32.3591 15.7627 32.2775 15.6073 32.1973C15.5033 32.1423 15.3973 32.0906 15.2943 32.0335C15.1051 31.9316 14.9176 31.8265 14.732 31.7182L14.5422 31.6122C14.2958 31.4667 14.0517 31.3172 13.8101 31.1636L13.6127 31.032C13.4371 30.9194 13.2633 30.8039 13.0915 30.6855L12.9239 30.5677C12.7585 30.4507 12.5943 30.332 12.4313 30.2116L12.2133 30.0465C12.0636 29.9327 11.9155 29.8169 11.7689 29.6991L11.5708 29.5402C11.3841 29.3872 11.1996 29.2316 11.0172 29.0736L10.9565 29.0225C10.76 28.8491 10.566 28.6728 10.3747 28.4937L10.2106 28.336C10.069 28.2012 9.92964 28.0653 9.79253 27.926L9.62877 27.7625C9.45476 27.5845 9.2837 27.4036 9.11565 27.2199L9.09029 27.1929C8.9132 26.9987 8.73967 26.8013 8.56978 26.6008L8.43364 26.439C8.30671 26.2863 8.18179 26.1319 8.05891 25.9759L7.9218 25.8051C7.77489 25.6152 7.6307 25.4231 7.48928 25.2291C3.58792 19.9072 2.186 12.5675 5.3042 6.53977M13.5337 5.75822C10.9723 9.4438 11.1116 14.3778 13.1095 18.2757C13.4438 18.9309 13.8223 19.5627 14.2423 20.1666C14.626 20.7167 15.0515 21.3711 15.5608 21.8129C15.747 22.0169 15.9386 22.2158 16.1355 22.4095L16.2871 22.5588C16.4783 22.7452 16.6741 22.927 16.8741 23.104L16.8978 23.1246L16.9036 23.1304C17.1273 23.3252 17.3559 23.5144 17.5892 23.6977L17.7449 23.8191C17.9794 23.9998 18.2185 24.1744 18.4619 24.3428L18.4828 24.3586C18.5907 24.4331 18.7005 24.5024 18.81 24.5743L18.9651 24.6768C19.1397 24.7888 19.3167 24.898 19.4965 25.0027L19.5719 25.0464C19.727 25.1356 19.8841 25.2236 20.0417 25.309L20.209 25.396C20.3179 25.4529 20.4267 25.511 20.5375 25.5662L20.5873 25.5887C20.813 25.6998 21.0407 25.807 21.2731 25.9082L21.4247 25.9705C21.6106 26.0495 21.7985 26.1265 21.9866 26.1985L22.2274 26.2868C22.3986 26.3503 22.5704 26.4081 22.7435 26.4663L22.9769 26.5411C23.2232 26.6175 23.4666 26.7142 23.7231 26.7569C36.947 28.9477 40 18.766 40 18.766C37.2482 22.7293 31.9186 24.6206 26.2316 23.1442C25.9801 23.0781 25.7304 23.0059 25.4824 22.9277L25.2573 22.8549C25.0816 22.798 24.907 22.7379 24.7336 22.6744L24.4973 22.5864C24.3081 22.5138 24.1201 22.438 23.9334 22.3591L23.7816 22.2949C23.549 22.1937 23.3191 22.0867 23.0918 21.9741C22.9753 21.9172 22.8607 21.8572 22.7457 21.7981L22.546 21.6954C22.3987 21.6155 22.2527 21.5331 22.1083 21.4481L22.0036 21.3887C21.8248 21.2844 21.648 21.1765 21.4735 21.065L21.3136 20.9584C21.1984 20.884 21.084 20.8083 20.9703 20.7314C20.7279 20.5629 20.4896 20.3886 20.2556 20.2087L20.0947 20.0818C17.6055 18.1167 15.6321 15.4304 14.6941 12.3848C13.7109 9.22642 13.9228 5.68083 15.6263 2.80313M22.7797 2.55428C21.2699 4.77629 21.1216 7.53582 22.1693 9.98967C23.2742 12.5948 25.538 14.6379 28.1803 15.6073C28.2892 15.6474 28.3983 15.6834 28.5085 15.721L28.6533 15.7669C28.809 15.8157 28.9635 15.8725 29.1243 15.903C36.4262 17.314 38.4067 12.1561 38.9336 11.3967C37.199 13.8946 34.2835 14.4941 30.7061 13.6258C30.4235 13.5574 30.113 13.4553 29.8407 13.3586C29.4909 13.2344 29.1478 13.0919 28.8129 12.9319C28.1773 12.6259 27.5737 12.2576 27.0109 11.8325C23.8098 9.40334 21.8213 4.77019 23.91 0.996948" fill="#0868AC"/>
</svg>
