<svg width="18" height="40" viewBox="0 0 18 40" fill="none" xmlns="http://www.w3.org/2000/svg">
<path fill-rule="evenodd" clip-rule="evenodd" d="M0.0889176 10.7267C0.373175 13.7262 0.655164 16.7089 0.943635 19.7584C1.41394 18.9478 1.75427 18.1703 2.26768 17.5335C2.74577 16.9402 3.34831 16.3927 4.00402 16.0136C4.86003 15.5184 5.98248 15.9847 6.25993 16.8629C6.33448 17.0984 6.15653 17.4142 6.0943 17.6933C5.88491 17.5825 5.61492 17.5215 5.47814 17.3519C4.89698 16.6315 4.54693 16.5464 3.90419 17.1689C2.70525 18.3308 2.03107 19.7864 1.77372 21.4223C1.72413 21.7387 1.92152 22.0939 2.00482 22.4311C2.33251 22.318 2.71303 22.2765 2.97784 22.0789C3.83872 21.4366 4.37223 20.5629 4.66653 19.5187C4.73038 19.2925 5.07655 19.1466 5.29306 18.9637C5.39678 19.1775 5.63339 19.4293 5.5838 19.5986C5.12532 21.1711 4.63514 22.7341 4.11357 24.2866C4.06107 24.4439 3.77292 24.5222 3.59368 24.6372C3.5214 24.4306 3.36938 24.2142 3.39369 24.0196C3.44815 23.5784 3.58979 23.1479 3.68865 22.7437L1.34198 23.8266C1.47325 25.3283 1.60939 27.0129 1.7708 28.6953C1.89462 29.98 2.10432 30.3127 3.36647 30.5564C4.83929 30.8406 6.33966 31.0223 7.83679 31.1327C10.0416 31.2992 12.2587 31.0901 14.3938 30.5141C15.1951 30.2984 15.5147 29.7701 15.572 28.9815C15.6245 28.2554 15.7419 27.5338 15.8232 26.8095C15.983 25.3829 16.1383 23.9559 16.3016 22.4694C15.7613 22.8126 15.3364 23.1966 14.8395 23.3594C14.4778 23.478 14.0214 23.3045 13.6069 23.2609C13.6863 22.8795 13.6814 22.4496 13.8649 22.128C14.1637 21.6023 14.5857 21.1464 14.9552 20.661L14.7961 20.469C14.5313 20.6259 14.2023 20.7289 14.014 20.9515C13.6308 21.4044 13.2558 21.8892 12.9995 22.4201C12.5703 23.3087 12.2433 24.2467 11.8592 25.1577C11.6923 25.5528 11.5483 26.1571 10.9892 25.9264C10.3912 25.6792 10.8119 25.1512 10.9523 24.7756C11.1756 24.1765 11.4706 23.604 11.6702 23.1635C11.1043 23.231 10.5306 23.3126 9.9543 23.3629C9.71056 23.3837 9.42079 23.2499 9.22145 23.3402C8.55862 23.6404 8.13855 23.5199 8.0008 22.7843C7.69385 22.9841 7.43391 23.2547 7.12761 23.3275C6.75584 23.4162 6.2515 23.4744 5.97924 23.2882C5.7611 23.1391 5.68169 22.5786 5.75624 22.2498C5.90436 21.5961 6.18116 20.9677 6.44403 20.3462C6.60674 19.9612 6.77042 19.3465 7.31949 19.6142C7.86207 19.8783 7.36941 20.3241 7.24429 20.6818C7.05014 21.2348 6.85243 21.7868 6.65666 22.3392L6.96782 22.5276C7.26407 22.2696 7.63324 22.0594 7.84068 21.743C8.18037 21.2257 8.38554 20.6214 8.70707 20.0905C8.84028 19.8705 9.12714 19.7445 9.34462 19.5758C9.3887 19.8559 9.49437 20.1438 9.45936 20.4141C9.42468 20.6873 9.23312 20.9372 9.14139 21.2075C9.00364 21.6124 8.89247 22.0263 8.75245 22.4971C9.41463 22.5224 9.69824 22.243 9.88526 21.7501C10.4771 20.1928 11.0754 18.6372 11.726 17.104C11.8371 16.8414 12.2151 16.6933 12.4702 16.4918C12.4997 16.8083 12.6403 17.167 12.5402 17.4337C12.007 18.8468 11.4083 20.2344 10.8456 21.6364C10.7507 21.8726 10.7202 22.1348 10.6602 22.385C11.6517 21.9382 12.4792 21.4444 12.7813 20.3881C12.8552 20.1314 13.1579 19.9407 13.3553 19.7194L13.8143 20.2068C13.9537 20.0892 14.0814 19.9553 14.2327 19.8575C14.7092 19.5498 15.2223 19.2786 15.7247 19.7552C16.2446 20.2481 15.8511 20.7283 15.5795 21.1546C15.2839 21.6195 14.9218 22.0415 14.5886 22.4821C15.338 21.998 16.3613 21.781 16.4974 20.7348C16.8293 18.1794 17.121 15.6188 17.4169 13.0589C17.5048 12.3012 17.5518 11.5386 17.6202 10.7491C11.7179 12.1816 5.94229 12.1904 0.0889176 10.7267ZM2.62228 30.6658C2.90653 31.4187 3.33827 32.1581 3.45139 32.9438C3.69027 34.6161 3.75088 36.3137 3.92007 37.9973C3.9447 38.2426 4.1032 38.5796 4.30092 38.6874C7.21156 40.273 10.1504 40.5479 13.12 38.8138C13.5631 38.5552 13.6451 38.2137 13.7025 37.7335C13.9803 35.4004 13.3618 32.9256 14.8499 30.7286C10.6829 31.7647 6.61614 31.7968 2.62228 30.6658ZM12.6672 11.1455C14.0811 11.0087 15.4777 10.676 16.876 10.4012C17.1395 10.3495 17.3735 10.1484 17.6211 10.0161C17.2948 9.7286 17.0124 9.59019 16.7175 9.55542C15.2492 9.3816 13.7757 9.24774 12.3084 9.06547C12.0867 9.03785 11.691 8.76363 11.7075 8.71359C12.1357 7.42047 12.1146 5.95677 13.0863 4.86703C14.3144 3.48943 15.5552 2.12386 16.7865 0.757628C15.8705 -0.230085 15.8582 -0.231385 15.0281 0.633189C14.5588 1.12185 14.13 1.65664 13.6208 2.09916C11.7367 3.73604 10.4133 5.67475 10.1553 8.23078C10.0959 8.81724 9.77474 9.02908 9.16052 9.03817C7.1328 9.06774 5.1028 9.12362 3.07962 9.25716C2.0771 9.32312 1.0869 9.58109 0.0908626 9.75199L0.0817871 10.1253C0.705079 10.318 1.31638 10.5711 1.95296 10.6936C5.50018 11.3752 9.08078 11.4922 12.6672 11.1455ZM11.5341 10.2527C10.7312 10.9025 10.0677 10.9025 9.42695 10.2527H11.5341Z" fill="#EB4A4B"/>
</svg>
