<svg width="40" height="46" viewBox="0 0 40 46" fill="none" xmlns="http://www.w3.org/2000/svg">
<path d="M38.4191 10.0161L21.9342 0.444112C20.8946 -0.148037 19.5409 -0.148037 18.4931 0.444112L1.83215 10.0161C0.759252 10.6333 0 11.7933 0 13.034V32.1525C0 33.3933 0.779066 34.5536 1.85196 35.1742L6.25383 37.6744C8.35776 38.7107 9.10131 38.7107 10.0587 38.7107C13.1738 38.7107 14.9533 36.8269 14.9533 33.5413V14.6665C14.9533 14.4 14.8146 14.0034 14.5529 14.0034H12.4508C12.1847 14.0034 11.5888 14.4 11.5888 14.6662V33.5409C11.5888 34.9974 10.2714 36.4467 7.80935 35.2157L3.26093 32.594C3.10243 32.508 2.99065 32.335 2.99065 32.1525V13.034C2.99065 12.8538 3.19813 12.6729 3.35776 12.5806L19.9649 3.02505C20.12 2.9372 20.348 2.9372 20.5028 3.02505L36.9073 12.5783C37.0643 12.6729 37.009 12.8482 37.009 13.034V32.1525C37.009 32.335 37.0774 32.5125 36.9222 32.6004L20.4415 42.1615C20.3002 42.2464 20.1249 42.2464 19.9701 42.1615L15.7432 39.6385C15.6157 39.5645 15.4643 39.5379 15.3421 39.6064C14.166 40.2729 13.9492 40.3615 12.846 40.7439C12.5746 40.8385 12.1742 41.0026 12.9993 41.465L18.5312 44.7376C19.0594 45.0426 19.6585 45.2033 20.2684 45.2034C20.8822 45.2034 21.4834 45.0441 22.0131 44.7376L38.4187 35.1742C39.4916 34.5492 40 33.3933 40 32.1525V13.034C40 11.7933 39.4916 10.6363 38.4191 10.0161ZM25.3869 29.123C21.0034 29.123 20.0378 27.9136 19.7159 25.7338C19.6785 25.4991 19.4793 25.2183 19.2404 25.2183H17.0979C16.8329 25.2183 16.6198 25.5398 16.6198 25.8037C16.6198 28.5948 18.1372 31.9764 25.3873 31.9764C30.6355 31.9764 33.6445 29.9372 33.6445 26.3282C33.6445 22.7499 31.2269 21.8108 26.1372 21.1372C20.9925 20.4572 20.4699 20.1136 20.4699 18.9084C20.4699 17.9148 20.9125 16.5895 24.7219 16.5895C28.1256 16.5895 29.3802 17.32 29.8964 19.6142C29.9406 19.8299 30.1376 19.9847 30.36 19.9847H32.511C32.6434 19.9847 32.7697 19.9312 32.8624 19.8366C32.9522 19.735 32.9996 19.6075 32.9877 19.4707C32.6546 15.52 30.0299 13.6789 24.7215 13.6789C19.9996 13.6789 17.1828 15.6729 17.1828 19.0153C17.1828 22.6407 19.9854 23.6426 24.5181 24.0908C29.9406 24.6224 30.3622 25.415 30.3622 26.4815C30.3622 28.3338 28.8751 29.123 25.3869 29.123Z" fill="#83CD29"/>
</svg>
