<svg width="13" height="14" viewBox="0 0 13 14" fill="none" xmlns="http://www.w3.org/2000/svg">
<path d="M0.214237 4.35721H2.90856V13.1122H0.214237V4.35721ZM1.56214 0C1.87117 1.41536e-07 2.17325 0.0925634 2.43018 0.26598C2.6871 0.439397 2.88733 0.685874 3.00552 0.974232C3.12371 1.26259 3.15456 1.57987 3.09416 1.88594C3.03376 2.19201 2.88483 2.47311 2.66622 2.69368C2.4476 2.91425 2.16911 3.06439 1.86599 3.12509C1.56286 3.18579 1.24872 3.15434 0.963305 3.0347C0.677887 2.91506 0.434017 2.71262 0.262546 2.45299C0.0910742 2.19336 -0.000293602 1.88819 7.0878e-07 1.57611C0.00039504 1.15796 0.165151 0.757074 0.458067 0.46154C0.750983 0.166006 1.14809 -1.89636e-07 1.56214 0ZM4.59865 4.35721H7.18139V5.5592H7.2171C7.57713 4.87106 8.45491 4.14536 9.76562 4.14536C12.4942 4.13935 13 5.95285 13 8.30424V13.1122H10.3057V8.85265C10.3057 7.83847 10.2878 6.53281 8.9057 6.53281C7.52358 6.53281 7.28851 7.63864 7.28851 8.78654V13.1122H4.59865V4.35721Z" fill="white"/>
</svg>
