<svg width="31" height="42" viewBox="0 0 31 42" fill="none" xmlns="http://www.w3.org/2000/svg">
<path fill-rule="evenodd" clip-rule="evenodd" d="M20.3816 12.7322C16.2955 16.8557 8.22385 24.9858 4.17237 29.0703C0.1209 33.1548 0.0901029 33.1937 0.113319 33.2289C0.136535 33.2635 0.214713 33.2949 2.52023 34.5967C4.82574 35.8985 9.35907 38.4708 11.7854 39.7921C14.2113 41.1129 14.5301 41.1832 14.8684 41.1832C15.2067 41.1832 15.5644 41.1129 18.0723 39.7921C20.5801 38.4708 25.238 35.8985 27.598 34.6043C29.958 33.3106 30.0201 33.2949 30.0358 33.2441C30.0514 33.1937 30.0201 33.1078 29.3554 29.0351C28.6906 24.962 27.3919 16.9022 26.7116 12.8334C26.0312 8.76457 25.9686 8.68668 25.8289 8.60072C25.6891 8.51523 25.4712 8.42166 25.265 8.38272C25.0589 8.34377 24.8647 8.35945 24.7169 8.42546C24.569 8.49196 24.4681 8.60879 20.3816 12.7322Z" fill="#FFCA2C"/>
<path fill-rule="evenodd" clip-rule="evenodd" d="M0.120971 33.2156C0.115759 33.2147 0.118128 33.2004 0.950596 27.8112C1.78259 22.4221 3.44563 11.6575 4.31032 6.17332C5.17501 0.688678 5.24229 0.483978 5.37921 0.323923C5.51614 0.163392 5.72367 0.0475057 5.94209 0.011885C6.16099 -0.0237357 6.39125 0.0213838 6.56609 0.13822C6.74092 0.255056 6.86079 0.444083 7.77428 2.15293C8.68777 3.86177 10.3953 7.09043 11.252 8.70999C12.1086 10.3295 12.1143 10.3405 12.1205 10.339C12.1266 10.3376 12.1332 10.3248 12.4678 9.66842C12.8023 9.01205 13.4642 7.71308 13.8584 6.97692C14.2526 6.24076 14.3795 6.06836 14.5288 5.95864C14.678 5.84893 14.8495 5.80239 15.0263 5.80429C15.2025 5.80619 15.3835 5.85653 15.5408 5.96529C15.6977 6.07405 15.8303 6.24076 16.5135 7.49508C17.1968 8.74941 18.4301 11.0909 19.0517 12.2711C19.6733 13.4509 19.6833 13.4699 19.6828 13.4841C19.6823 13.4988 19.6714 13.5098 16.4145 16.794C13.1576 20.0782 6.65421 26.6362 3.39636 29.9209C0.138501 33.2056 0.125709 33.217 0.120971 33.2156Z" fill="#FFA715"/>
<path fill-rule="evenodd" clip-rule="evenodd" d="M0.255424 33.0789C0.250686 33.0779 0.263952 33.0528 2.24018 29.266C4.21687 25.4793 8.15748 17.9311 10.1313 14.1496C12.1052 10.3681 12.1128 10.3538 12.1166 10.3462C12.1203 10.3391 12.1203 10.3391 12.1241 10.3467C12.1284 10.3543 12.1365 10.369 12.7543 11.5241C13.3726 12.6787 14.6007 14.9731 15.2219 16.1334C15.8425 17.2932 15.8558 17.3184 15.8511 17.3431C15.8458 17.3673 15.8226 17.3911 13.229 20.0061C10.635 22.6206 5.47055 27.8274 2.87697 30.442C0.283378 33.057 0.260636 33.0798 0.255424 33.0789Z" fill="#F5820B"/>
</svg>
