<svg width="41" height="40" viewBox="0 0 41 40" fill="none" xmlns="http://www.w3.org/2000/svg">
<g clip-path="url(#clip0_327_12)">
<path d="M37.0766 0.0195312H3.05749C1.43246 0.0195312 0.115112 1.76671 0.115112 3.92197V36.1171C0.115112 38.2724 1.43246 40.0195 3.05749 40.0195H37.0766C38.7016 40.0195 40.019 38.2724 40.019 36.1171V3.92197C40.019 1.76671 38.7016 0.0195312 37.0766 0.0195312Z" fill="#FFCA2C"/>
<path d="M21.4725 19.4603V31.3931C21.4725 32.1366 21.3425 32.8125 21.082 33.4216C20.822 34.0304 20.4509 34.5483 19.9698 34.9752C19.4886 35.4025 18.9089 35.7307 18.2303 35.9598C17.5518 36.1892 16.7946 36.304 15.9584 36.304C14.2703 36.304 12.9646 35.8849 12.0415 35.0466C11.1185 34.2045 10.531 33.0973 10.2784 31.7252L13.6389 31.0372C13.7654 31.749 14.006 32.3262 14.361 32.7691C14.7157 33.2121 15.2483 33.4333 15.9584 33.4333C16.5579 33.4333 17.0274 33.2398 17.3665 32.8523C17.7056 32.4609 17.8753 31.8638 17.8753 31.0571V22.3781H12.432V19.4603H21.4725ZM30.4183 36.304C29.0301 36.304 27.8232 36.0745 26.7974 35.6199C25.772 35.1652 24.9435 34.5483 24.3125 33.7615L26.3715 31.488C26.971 32.1522 27.6297 32.6427 28.3476 32.9588C29.0655 33.2753 29.7951 33.4333 30.5367 33.4333C31.3889 33.4333 32.0355 33.2437 32.4774 32.8601C32.9192 32.4765 33.14 31.927 33.14 31.2074C33.14 30.6181 32.9706 30.1713 32.6312 29.8669C32.2921 29.5664 31.7202 29.349 30.9155 29.2226L29.1877 28.9377C27.7049 28.6849 26.632 28.135 25.9694 27.289C25.3064 26.4468 24.9751 25.415 24.9751 24.197C24.9751 22.6037 25.496 21.3662 26.5374 20.4925C27.5784 19.6144 29.0379 19.1758 30.9155 19.1758C32.1936 19.1758 33.3058 19.3732 34.2522 19.7647C35.199 20.1561 35.9644 20.6899 36.548 21.3623L34.5364 23.6121C34.0946 23.1215 33.5741 22.7379 32.9745 22.4612C32.375 22.1846 31.6964 22.046 30.9392 22.046C29.3454 22.046 28.5489 22.7063 28.5489 24.0312C28.5489 24.6084 28.7264 25.0392 29.0815 25.3241C29.4361 25.6125 30.0162 25.8302 30.8209 25.9723L32.5486 26.281C33.8894 26.5178 34.923 27.024 35.6487 27.7951C36.3743 28.5701 36.7372 29.614 36.7372 30.9264C36.7372 31.6975 36.6032 32.4132 36.335 33.0696C36.0668 33.726 35.6646 34.2954 35.1282 34.7738C34.5917 35.2562 33.933 35.6316 33.152 35.9005C32.3711 36.1693 31.4597 36.304 30.4183 36.304Z" fill="#171717"/>
</g>
<defs>
<clipPath id="clip0_327_12">
<rect width="39.9038" height="40" fill="white" transform="translate(0.134613)"/>
</clipPath>
</defs>
</svg>
