<svg width="40" height="36" viewBox="0 0 40 36" fill="none" xmlns="http://www.w3.org/2000/svg">
<path fill-rule="evenodd" clip-rule="evenodd" d="M10.3401 34.2186C11.7789 35.049 14.159 34.1148 16.8439 31.9329C19.766 29.5583 22.9235 25.751 25.6232 21.0744L25.6248 21.0712L25.6232 21.0705C25.633 21.0541 25.6419 21.0377 25.6517 21.0213L25.6537 21.0174V21.017L25.654 21.0174C28.3381 16.3551 30.0466 11.7393 30.6394 8.04022C31.1869 4.62168 30.8064 2.09212 29.3684 1.26168C27.928 0.430074 25.5463 1.36471 22.8607 3.54734C19.9385 5.92237 16.7811 9.72959 14.0814 14.4059L14.0509 14.4632H14.0505L14.049 14.4621C11.366 19.1224 9.65834 23.7386 9.06517 27.4404C8.51766 30.8586 8.89814 33.3881 10.3362 34.2186H10.3401ZM9.85229 35.0607C13.5046 37.1696 20.9426 31.1243 26.4658 21.5583C31.9885 11.9926 33.5046 2.52842 29.8523 0.419538C26.2 -1.68895 18.7619 4.35632 13.2392 13.922C7.71609 23.488 6.2 32.9518 9.85229 35.0607Z" fill="#61DAFB"/>
<path fill-rule="evenodd" clip-rule="evenodd" d="M29.3684 34.2186C30.8064 33.3881 31.1869 30.8586 30.6394 27.4404C30.0462 23.7386 28.3385 19.122 25.6556 14.4621L25.654 14.4632H25.6537L25.6232 14.4098C22.9208 9.72842 19.7633 5.92003 16.8439 3.54734C14.159 1.36549 11.7789 0.431245 10.3401 1.26168C8.8997 2.09368 8.51805 4.62325 9.06517 8.04022C9.66029 11.7534 11.3793 16.3907 14.0814 21.0705L14.0798 21.0716L14.0814 21.0744C16.7811 25.7507 19.9385 29.5579 22.8607 31.9329C25.5463 34.1159 27.928 35.0502 29.3684 34.2186ZM29.8523 35.0607C33.5046 32.9518 31.9885 23.488 26.4658 13.922C20.9426 4.35632 13.5046 -1.68895 9.85229 0.419538C6.2 2.52842 7.71609 11.9926 13.2392 21.5583C18.7619 31.1243 26.2 37.1696 29.8523 35.0607Z" fill="#61DAFB"/>
<path d="M23.7272 17.6492C23.7272 15.5907 22.0586 13.922 20 13.922C17.9415 13.922 16.2728 15.5907 16.2728 17.6492C16.2728 19.7077 17.9415 21.3764 20 21.3764C22.0586 21.3764 23.7272 19.7077 23.7272 17.6492Z" fill="#61DAFB"/>
<path fill-rule="evenodd" clip-rule="evenodd" d="M39.0244 17.7766C39.0244 16.115 37.026 14.5212 33.7955 13.2876C30.281 11.946 25.4049 11.1159 20 11.1159C14.5951 11.1159 9.71903 11.946 6.20449 13.2876C2.97405 14.5212 0.97561 16.115 0.97561 17.7766C0.97561 19.4383 2.97405 21.032 6.20449 22.2656C9.71903 23.6073 14.5951 24.4373 20 24.4373C25.4049 24.4373 30.281 23.6073 33.7955 22.2656C37.026 21.032 39.0244 19.4383 39.0244 17.7766ZM40 17.7766C40 13.5593 31.0459 10.1403 20 10.1403C8.95415 10.1403 0 13.5593 0 17.7766C0 21.994 8.95415 25.4129 20 25.4129C31.0459 25.4129 40 21.994 40 17.7766Z" fill="#61DAFB"/>
</svg>
