<svg width="40" height="40" viewBox="0 0 40 40" fill="none" xmlns="http://www.w3.org/2000/svg">
<path d="M5.94907 35.5862L2.82251 0.519043H37.1775L34.0475 35.5809L19.9791 39.4809L5.94907 35.5862Z" fill="#E44D26"/>
<path d="M20 36.5L31.3681 33.3481L34.0428 3.38623H20V36.5Z" fill="#F16529"/>
<path d="M20 16.3921H14.3087L13.9156 11.9878H20V7.68713H9.2153L9.31843 8.84088L10.3753 20.6931H20V16.3921ZM20 27.5618L19.9809 27.5671L15.1912 26.2734L14.8853 22.8437H10.5675L11.17 29.5965L19.9803 32.0421L20 32.0368V27.5618Z" fill="#EBEBEB"/>
<path d="M19.985 16.3921V20.6931H25.2809L24.7819 26.2709L19.985 27.5656V32.0403L28.8022 29.5965L28.8669 28.8699L29.8775 17.5471L29.9822 16.3921H28.8234H19.985ZM19.985 7.68713V11.9878H30.3737L30.46 11.0215L30.6562 8.84088L30.759 7.68713H19.985Z" fill="white"/>
</svg>
