<svg width="14" height="14" viewBox="0 0 14 14" fill="none" xmlns="http://www.w3.org/2000/svg">
<path d="M6.5561 0C4.77502 0 4.55266 0.00819512 3.85335 0.0393366C3.15512 0.0721171 2.6798 0.181932 2.26185 0.344195C1.83079 0.511376 1.46474 0.735922 1.10033 1.10033C0.735922 1.46474 0.510829 1.83024 0.344195 2.26185C0.181932 2.6798 0.0715707 3.15512 0.0393366 3.85335C0.0065561 4.55266 0 4.77502 0 6.5561C0 8.33717 0.00819512 8.55953 0.0393366 9.25885C0.0721171 9.95653 0.181932 10.4324 0.344195 10.8503C0.511376 11.2809 0.735922 11.6475 1.10033 12.0119C1.46474 12.3757 1.83024 12.6014 2.26185 12.768C2.68035 12.9297 3.15567 13.0406 3.85335 13.0729C4.55266 13.1056 4.77502 13.1122 6.5561 13.1122C8.33717 13.1122 8.55953 13.104 9.25885 13.0729C9.95653 13.0401 10.4324 12.9297 10.8503 12.768C11.2809 12.6008 11.6475 12.3757 12.0119 12.0119C12.3757 11.6475 12.6014 11.2825 12.768 10.8503C12.9297 10.4324 13.0406 9.95653 13.0729 9.25885C13.1056 8.55953 13.1122 8.33717 13.1122 6.5561C13.1122 4.77502 13.104 4.55266 13.0729 3.85335C13.0401 3.15567 12.9297 2.67926 12.768 2.26185C12.6008 1.83079 12.3757 1.46474 12.0119 1.10033C11.6475 0.735922 11.2825 0.510829 10.8503 0.344195C10.4324 0.181932 9.95653 0.0715707 9.25885 0.0393366C8.55953 0.0065561 8.33717 0 6.5561 0ZM6.5561 1.1801C8.30603 1.1801 8.51473 1.18884 9.20585 1.21889C9.84507 1.24894 10.192 1.35493 10.4226 1.44562C10.7296 1.56418 10.947 1.70622 11.1776 1.93514C11.4065 2.1646 11.5486 2.3826 11.6671 2.68964C11.7567 2.92019 11.8638 3.26712 11.8928 3.90634C11.9239 4.59801 11.931 4.80562 11.931 6.5561C11.931 8.30658 11.9228 8.51473 11.8906 9.20585C11.8572 9.84507 11.7507 10.192 11.6606 10.4226C11.5382 10.7296 11.3989 10.947 11.1694 11.1776C10.9405 11.4065 10.7192 11.5486 10.4155 11.6671C10.186 11.7567 9.8336 11.8638 9.19438 11.8928C8.49834 11.9239 8.29346 11.931 6.53971 11.931C4.7854 11.931 4.58053 11.9228 3.88503 11.8906C3.24527 11.8572 2.89288 11.7507 2.66341 11.6606C2.35255 11.5382 2.13893 11.3989 1.91001 11.1694C1.68 10.9405 1.53303 10.7192 1.4183 10.4155C1.32816 10.186 1.22217 9.8336 1.18884 9.19438C1.16425 8.50599 1.15551 8.29346 1.15551 6.5479C1.15551 4.80179 1.16425 4.58872 1.18884 3.89214C1.22217 3.25292 1.32816 2.90107 1.4183 2.67161C1.53303 2.36019 1.68 2.14712 1.91001 1.91711C2.13893 1.6882 2.35255 1.54068 2.66341 1.4265C2.89288 1.3358 3.23762 1.22927 3.87684 1.19649C4.57342 1.1719 4.7783 1.16371 6.53151 1.16371L6.5561 1.1801ZM6.5561 3.18954C4.6958 3.18954 3.18954 4.69744 3.18954 6.5561C3.18954 8.41639 4.69744 9.92265 6.5561 9.92265C8.41639 9.92265 9.92265 8.41475 9.92265 6.5561C9.92265 4.6958 8.41475 3.18954 6.5561 3.18954ZM6.5561 8.74146C5.34868 8.74146 4.37073 7.76351 4.37073 6.5561C4.37073 5.34868 5.34868 4.37073 6.5561 4.37073C7.76351 4.37073 8.74146 5.34868 8.74146 6.5561C8.74146 7.76351 7.76351 8.74146 6.5561 8.74146ZM10.8427 3.05678C10.8427 3.49112 10.4898 3.84351 10.056 3.84351C9.62162 3.84351 9.26923 3.49058 9.26923 3.05678C9.26923 2.62299 9.62217 2.2706 10.056 2.2706C10.4892 2.27005 10.8427 2.62299 10.8427 3.05678Z" fill="white"/>
</svg>
