<svg width="61" height="50" viewBox="0 0 61 50" fill="none" xmlns="http://www.w3.org/2000/svg">
<path d="M57.2467 13.9639C57.2467 12.9165 58.0869 12.0673 59.1233 12.0673C60.1598 12.0673 61 12.9165 61 13.9639C61 15.0114 60.1598 15.8606 59.1233 15.8606C58.0869 15.8606 57.2467 15.0114 57.2467 13.9639Z" fill="#CCCCCC"/>
<path d="M57.2467 2.58414C57.2467 1.53665 58.0869 0.6875 59.1233 0.6875C60.1598 0.6875 61 1.53665 61 2.58414C61 3.63162 60.1598 4.48077 59.1233 4.48077C58.0869 4.48077 57.2467 3.63162 57.2467 2.58414Z" fill="#CCCCCC"/>
<path d="M45.9867 36.7236C45.9867 35.6761 46.8269 34.8269 47.8633 34.8269C48.8998 34.8269 49.74 35.6761 49.74 36.7236C49.74 37.771 48.8998 38.6202 47.8633 38.6202C46.8269 38.6202 45.9867 37.771 45.9867 36.7236Z" fill="#CCCCCC"/>
<path d="M45.9867 25.3438C45.9867 24.2963 46.8269 23.4471 47.8633 23.4471C48.8998 23.4471 49.74 24.2963 49.74 25.3438C49.74 26.3912 48.8998 27.2404 47.8633 27.2404C46.8269 27.2404 45.9867 26.3912 45.9867 25.3438Z" fill="#CCCCCC"/>
<path d="M45.9867 13.9639C45.9867 12.9165 46.8269 12.0673 47.8633 12.0673C48.8998 12.0673 49.74 12.9165 49.74 13.9639C49.74 15.0114 48.8998 15.8606 47.8633 15.8606C46.8269 15.8606 45.9867 15.0114 45.9867 13.9639Z" fill="#CCCCCC"/>
<path d="M45.9867 2.58414C45.9867 1.53665 46.8269 0.6875 47.8633 0.6875C48.8998 0.6875 49.74 1.53665 49.74 2.58414C49.74 3.63162 48.8998 4.48077 47.8633 4.48077C46.8269 4.48077 45.9867 3.63162 45.9867 2.58414Z" fill="#CCCCCC"/>
<path d="M34.7267 36.7236C34.7267 35.6761 35.5669 34.8269 36.6033 34.8269C37.6398 34.8269 38.48 35.6761 38.48 36.7236C38.48 37.771 37.6398 38.6202 36.6033 38.6202C35.5669 38.6202 34.7267 37.771 34.7267 36.7236Z" fill="#CCCCCC"/>
<path d="M34.7267 25.3438C34.7267 24.2963 35.5669 23.4471 36.6033 23.4471C37.6398 23.4471 38.48 24.2963 38.48 25.3438C38.48 26.3912 37.6398 27.2404 36.6033 27.2404C35.5669 27.2404 34.7267 26.3912 34.7267 25.3438Z" fill="#CCCCCC"/>
<path d="M34.7267 13.9639C34.7267 12.9165 35.5669 12.0673 36.6033 12.0673C37.6398 12.0673 38.48 12.9165 38.48 13.9639C38.48 15.0114 37.6398 15.8606 36.6033 15.8606C35.5669 15.8606 34.7267 15.0114 34.7267 13.9639Z" fill="#CCCCCC"/>
<path d="M34.7267 2.58414C34.7267 1.53665 35.5669 0.6875 36.6033 0.6875C37.6398 0.6875 38.48 1.53665 38.48 2.58414C38.48 3.63162 37.6398 4.48077 36.6033 4.48077C35.5669 4.48077 34.7267 3.63162 34.7267 2.58414Z" fill="#CCCCCC"/>
<path d="M23.4667 48.1034C23.4667 47.0559 24.3069 46.2067 25.3433 46.2067C26.3798 46.2067 27.22 47.0559 27.22 48.1034C27.22 49.1508 26.3798 50 25.3433 50C24.3069 50 23.4667 49.1508 23.4667 48.1034Z" fill="#CCCCCC"/>
<path d="M23.4667 36.7236C23.4667 35.6761 24.3069 34.8269 25.3433 34.8269C26.3798 34.8269 27.22 35.6761 27.22 36.7236C27.22 37.771 26.3798 38.6202 25.3433 38.6202C24.3069 38.6202 23.4667 37.771 23.4667 36.7236Z" fill="#CCCCCC"/>
<path d="M23.4667 25.3438C23.4667 24.2963 24.3069 23.4471 25.3433 23.4471C26.3798 23.4471 27.22 24.2963 27.22 25.3438C27.22 26.3912 26.3798 27.2404 25.3433 27.2404C24.3069 27.2404 23.4667 26.3912 23.4667 25.3438Z" fill="#CCCCCC"/>
<path d="M23.4667 13.9639C23.4667 12.9165 24.3069 12.0673 25.3433 12.0673C26.3798 12.0673 27.22 12.9165 27.22 13.9639C27.22 15.0114 26.3798 15.8606 25.3433 15.8606C24.3069 15.8606 23.4667 15.0114 23.4667 13.9639Z" fill="#CCCCCC"/>
<path d="M23.4667 2.58414C23.4667 1.53665 24.3069 0.6875 25.3433 0.6875C26.3798 0.6875 27.22 1.53665 27.22 2.58414C27.22 3.63162 26.3798 4.48077 25.3433 4.48077C24.3069 4.48077 23.4667 3.63162 23.4667 2.58414Z" fill="#CCCCCC"/>
<path d="M12.2067 48.1034C12.2067 47.0559 13.0469 46.2067 14.0833 46.2067C15.1198 46.2067 15.96 47.0559 15.96 48.1034C15.96 49.1508 15.1198 50 14.0833 50C13.0469 50 12.2067 49.1508 12.2067 48.1034Z" fill="#CCCCCC"/>
<path d="M12.2067 36.7236C12.2067 35.6761 13.0469 34.8269 14.0833 34.8269C15.1198 34.8269 15.96 35.6761 15.96 36.7236C15.96 37.771 15.1198 38.6202 14.0833 38.6202C13.0469 38.6202 12.2067 37.771 12.2067 36.7236Z" fill="#CCCCCC"/>
<path d="M12.2067 25.3438C12.2067 24.2963 13.0469 23.4471 14.0833 23.4471C15.1198 23.4471 15.96 24.2963 15.96 25.3438C15.96 26.3912 15.1198 27.2404 14.0833 27.2404C13.0469 27.2404 12.2067 26.3912 12.2067 25.3438Z" fill="#CCCCCC"/>
<path d="M12.2067 13.9639C12.2067 12.9165 13.0469 12.0673 14.0833 12.0673C15.1198 12.0673 15.96 12.9165 15.96 13.9639C15.96 15.0114 15.1198 15.8606 14.0833 15.8606C13.0469 15.8606 12.2067 15.0114 12.2067 13.9639Z" fill="#CCCCCC"/>
<path d="M12.2067 2.58414C12.2067 1.53665 13.0469 0.6875 14.0833 0.6875C15.1198 0.6875 15.96 1.53665 15.96 2.58414C15.96 3.63162 15.1198 4.48077 14.0833 4.48077C13.0469 4.48077 12.2067 3.63162 12.2067 2.58414Z" fill="#CCCCCC"/>
<path d="M0.946667 48.1034C0.946667 47.0559 1.78688 46.2067 2.82333 46.2067C3.85979 46.2067 4.7 47.0559 4.7 48.1034C4.7 49.1508 3.85979 50 2.82333 50C1.78688 50 0.946667 49.1508 0.946667 48.1034Z" fill="#CCCCCC"/>
<path d="M0.946667 36.7236C0.946667 35.6761 1.78688 34.8269 2.82333 34.8269C3.85979 34.8269 4.7 35.6761 4.7 36.7236C4.7 37.771 3.85979 38.6202 2.82333 38.6202C1.78688 38.6202 0.946667 37.771 0.946667 36.7236Z" fill="#CCCCCC"/>
<path d="M0.946667 25.3438C0.946667 24.2963 1.78688 23.4471 2.82333 23.4471C3.85979 23.4471 4.7 24.2963 4.7 25.3438C4.7 26.3912 3.85979 27.2404 2.82333 27.2404C1.78688 27.2404 0.946667 26.3912 0.946667 25.3438Z" fill="#CCCCCC"/>
<path d="M0.946667 13.9639C0.946667 12.9165 1.78688 12.0673 2.82333 12.0673C3.85979 12.0673 4.7 12.9165 4.7 13.9639C4.7 15.0114 3.85979 15.8606 2.82333 15.8606C1.78688 15.8606 0.946667 15.0114 0.946667 13.9639Z" fill="#CCCCCC"/>
<path d="M0.946667 2.58414C0.946667 1.53665 1.78688 0.6875 2.82333 0.6875C3.85979 0.6875 4.7 1.53665 4.7 2.58414C4.7 3.63162 3.85979 4.48077 2.82333 4.48077C1.78688 4.48077 0.946667 3.63162 0.946667 2.58414Z" fill="#CCCCCC"/>
</svg>
