<svg width="32" height="32" viewBox="0 0 32 32" fill="none" xmlns="http://www.w3.org/2000/svg">
<path d="M18.9567 15.67L23.8863 10.7404C24.4912 10.1355 24.4912 9.15469 23.8863 8.54927L22.7907 7.4537C22.1858 6.84877 21.205 6.84877 20.5996 7.4537L15.67 12.3833L10.7404 7.4537C10.1355 6.84877 9.15469 6.84877 8.54927 7.4537L7.4537 8.54927C6.84877 9.1542 6.84877 10.135 7.4537 10.7404L12.3833 15.67L7.4537 20.5996C6.84877 21.2045 6.84877 22.1853 7.4537 22.7907L8.54927 23.8863C9.1542 24.4912 10.1355 24.4912 10.7404 23.8863L15.67 18.9567L20.5996 23.8863C21.2045 24.4912 22.1858 24.4912 22.7907 23.8863L23.8863 22.7907C24.4912 22.1858 24.4912 21.205 23.8863 20.5996L18.9567 15.67Z" fill="#FF0066"/>
<circle cx="15.68" cy="15.68" r="14.68" stroke="#FF0066" stroke-width="2"/>
</svg>